 http://leetleech.org/images/99907780828887586927.jpg

Screens:
 
http://leetleech.org/images/71564324178118696591.jpg
 
http://leetleech.org/images/82542946202736699104.jpg
 
http://leetleech.org/images/99450543517345880094.jpg
 
http://leetleech.org/images/97030857223050159657.jpg

Alternative:
 
http://www.postimg.com/image/29000/28997.jpg
 
http://www.postimg.com/image/29000/28999.jpg
 
http://www.postimg.com/image/29000/29000.jpg
 
http://www.postimg.com/image/30000/29001.jpg

ScreenCaps:
 
http://www.postimg.com/30000/29004.jpg

Hereafter (2010) DVDRip XviD-MAX 
Format                           : AVI
Format/Info                      : Audio Video Interleave
Format profile                   : OpenDML
File size                        : 1.19 GiB
Duration                         : 2h 9mn
Overall bit rate                 : 1 315 Kbps
Writing application              : VirtualDubMod 1.5.10.2 (build 2542/release)
Writing library                  : VirtualDubMod build 2542/release
Original source form             : MAX TORRENTZ
Copyright                        : SIGISMUNT

Video
ID                               : 0
Format                           : MPEG-4 Visual
Format profile                   : AdvancedSimple@L5
Format settings, BVOP            : Yes
Format settings, QPel            : No
Format settings, GMC             : No warppoints
Format settings, Matrix          : Default (MPEG)
Codec ID                         : XVID
Codec ID/Hint                    : XviD
Duration                         : 2h 9mn
Bit rate                         : 1 120 Kbps
Width                            : 640 pixels
Height                           : 272 pixels
Display aspect ratio             : 2.35:1
Frame rate                       : 23.976 fps
Resolution                       : 24 bits
Colorimetry                      : 4:2:0
Scan type                        : Progressive
Bits/(Pixel*Frame)               : 0.268
Stream size                      : 1.01 GiB (85%)
Writing library                  : XviD 1.2.1 (UTC 2008-12-04)

Audio
ID                               : 1
Format                           : MPEG Audio
Format version                   : Version 1
Format profile                   : Layer 3
Codec ID                         : 55
Codec ID/Hint                    : MP3
Duration                         : 2h 9mn
Bit rate mode                    : Constant
Bit rate                         : 192 Kbps
Channel(s)                       : 2 channels
Sampling rate                    : 48.0 KHz
Resolution                       : 16 bits
Stream size                      : 177 MiB (15%)
Alignment                        : Aligned on interleaves
Interleave, duration             : 635 ms (15.23 video frames)
Interleave, preload duration     : 216 ms
 
Source: DVD+MP3 audio (perfect a/v/sync quality with additional 500% volume and forced english 
subtitle on few french original parts,sample is included)
 
http://www.imdb.com/title/tt1212419/

Hereafter (2010) DVDRip XviD-MAX Torrent Free Download
 
http://thepiratebay.org/user/extremezone/0/7

How To Get Your Maxspeed (uTorrent)

Torrent Client - Preferences - Bandwidth - Number of connections - Set aprox. 500 for each 
Torrent Client - Preferences - BiTorrent - Protocol Encryption - Forced
Bandwidth Allocation - High (Set download/upload limit - Unlimited)
Stop Other Active Torrents - Start downloading and wait for connections.
Enjoy and Seed for at least 1:1 ratio. Don't forget to say thanks/leave reviews.
Before downloading you should check/google search sample "release name""sample".
Greets to all actual/future p2p/scene QUALITY groups and affiliate websites.
Don't trust IMDb robot or bad ratings,always watch some trailers first.
Ignore stupid comments/fake/mislabeled/no-DVDrips/CAM/TS/RAR uploads.
Please spread this release/torrent to your friends/forums/etc.
If you need translation subs visit some subtitles sites.
Report if you see online streaming or other spam links.
Recommended movie player VLC PLAYER.